<svg width="800" height="600" fill="none" xmlns="http://www.w3.org/2000/svg">
    <path d="M206.03 318.295c49.614 55.021 91.579 12.745 139.734-10.285 83.873-40.112 180.003 59.339 223.147 6.159 31.954-39.386 3.728-140.855-63.646-187.89-58.674-40.96-124.373-40.511-201.824-7.094-82.49 35.591-150.805 139.898-97.411 199.11z" fill="url(#a)" fill-opacity=".15"/>
    <path d="M551.936 353.75c-3.607 30.603 5.386 71.074 10.574 85.445l-3.264 6.296c-5.115-18.867-14.672-63.726-10.631-92.212 5.195-36.612 22.393-66.304 31.946-81.903l1.081 1.932c-8.238 12.703-25.714 46.576-29.706 80.442z" fill="#FFBDD1"/>
    <path d="M575.159 378.114c-18.028 18.205-16.499 47.841-13.481 60.383 8.186-14.362 18.547-34.509 40.087-48.021 24.653-15.466 38.067-33.892 46.195-50.413-7.839 11.972-50.266 15.294-72.801 38.051z" fill="#7795FF" fill-opacity=".7"/>
    <path d="M579.022 353.795c-18.028 18.205-19.596 61.482-16.578 74.024 8.187-14.361 21.316-38.837 43-56.5 21.79-17.749 35.298-42.217 36.082-59.503-9.082 15.003-39.969 19.222-62.504 41.979z" fill="#7795FF" fill-opacity=".7"/>
    <path d="M563.9 358.66c-15.386 28.978-7.976 65.868-2.348 80.69 5.793-20.85 21.06-52.858 36.438-72.418 19.138-24.341 24.145-57.557 29.455-81.113-5.896 17.72-44.313 36.619-63.545 72.841z" fill="#5970C4"/>
    <path fill-rule="evenodd" clip-rule="evenodd" d="M637.325 181.106c-7.633 9.456-21.871 30.13-27.444 40.929 5.644-8.96 19.287-29.518 28.711-40.073l-.081-.192c4.531 3.309 6.244 14.495.064 37.406-5.448-.958-11.228-1.312-14.974-.452 3.257.136 8.958.712 14.546 2.012-1.275 4.572-2.855 9.593-4.777 15.092a74.807 74.807 0 0 1-2.036 5.197c-4.416-2.56-9.114-4.641-12.565-5.149 2.792 1.228 7.442 3.595 11.935 6.557-3.249 7.054-7.406 13.167-12.059 18.43-4.195-3.321-8.821-6.229-12.319-7.248 2.671 1.64 7.12 4.731 11.28 8.4-15.342 16.686-35.592 24.481-46.591 26.503a249.651 249.651 0 0 0-.056-4.449c-.17-9.131-.359-19.271 5.3-32.512a118.558 118.558 0 0 1 2.02-4.461c3.049 2.137 5.813 5.348 7.095 7.115-.853-2.665-3.775-6.022-6.534-8.273 5.54-11.306 13.17-22.754 21.033-32.83 2.611 2.076 4.891 4.754 6.02 6.31-.728-2.273-2.96-5.049-5.312-7.213a238.294 238.294 0 0 1 4.21-5.192c2.868 2.127 5.424 5.11 6.642 6.789-.785-2.452-3.319-5.488-5.868-7.711 11.612-13.768 22.755-23.754 27.454-25.09 1.539-.438 3.005-.426 4.306.105z" fill="#FFBDD1"/>
    <path d="M539.493 155.987v203.605h-3.277l-101.598-65.547-.819-197.87h4.506l101.188 59.812z" fill="#213375"/>
    <path d="m431.341 295.684 2.458-199.509 102.417 61.451v201.966l-104.875-63.908z" fill="#3E5193"/>
    <path d="M518.19 169.916v203.605h-3.277l-101.598-65.547-.819-197.87h4.506l101.188 59.812z" fill="#4F70E4"/>
    <path d="m410.038 309.612 2.458-199.508 102.417 61.45v201.967l-104.875-63.909z" fill="#6785EF"/>
    <path d="M496.888 184.664v203.605h-3.278l-101.598-65.547-.819-197.87h4.506l101.189 59.812z" fill="#B2C3FF"/>
    <path d="m388.735 324.361 2.458-199.509 102.417 61.45v201.967l-104.875-63.908z" fill="#E8EDFF"/>
    <path d="M396.928 176.88v-33.593l90.537 52.847v35.232l-90.537-54.486z" fill="#fff" fill-opacity=".3"/>
    <ellipse cx="409.182" cy="168.079" rx="5.937" ry="10.311" transform="rotate(-1.595 409.182 168.079)" fill="#fff"/>
    <path d="M419.87 167.867V165l29.086 17.615v2.868l-29.086-17.616zM419.87 182.206v-2.868l16.387 10.242v2.867l-16.387-10.241zM419.87 174.832v-2.868l38.099 23.351v2.868l-38.099-23.351z" fill="#B2C3FF"/>
    <path d="m472.963 204.796-.656 3.511 3.606 6.672 6.227-10.183-.328-4.565-5.899 10.534-2.95-5.969z" fill="#6785EF"/>
    <path d="M396.928 217.437v-33.593l90.537 52.847v35.232l-90.537-54.486z" fill="#fff" fill-opacity=".3"/>
    <ellipse cx="409.182" cy="208.636" rx="5.937" ry="10.311" transform="rotate(-1.595 409.182 208.636)" fill="#fff"/>
    <path d="M419.87 208.424v-2.867l29.086 17.615v2.868l-29.086-17.616zM419.87 222.763v-2.868l16.387 10.242v2.867l-16.387-10.241zM419.87 215.389v-2.868l38.099 23.351v2.868l-38.099-23.351z" fill="#B2C3FF"/>
    <path d="m472.963 245.353-.656 3.511 3.606 6.672 6.227-10.183-.328-4.565-5.899 10.534-2.95-5.969z" fill="#6785EF"/>
    <path d="M396.928 259.223V225.63l90.537 52.848v35.231l-90.537-54.486z" fill="#fff" fill-opacity=".3"/>
    <ellipse cx="409.182" cy="250.422" rx="5.937" ry="10.311" transform="rotate(-1.595 409.182 250.422)" fill="#fff"/>
    <path d="M419.87 250.211v-2.868l29.086 17.616v2.867l-29.086-17.615zM419.87 264.549v-2.868l16.387 10.242v2.868l-16.387-10.242zM419.87 257.175v-2.868l38.099 23.351v2.868l-38.099-23.351z" fill="#B2C3FF"/>
    <path d="m472.963 287.139-.656 3.512 3.606 6.671 6.227-10.183-.328-4.565-5.899 10.535-2.95-5.97z" fill="#6785EF"/>
    <path d="M396.928 301.009v-33.592l90.537 52.847v35.231l-90.537-54.486z" fill="#fff" fill-opacity=".3"/>
    <ellipse cx="409.182" cy="292.208" rx="5.937" ry="10.311" transform="rotate(-1.595 409.182 292.208)" fill="#C4C4C4"/>
    <path d="M419.87 291.997v-2.868l29.086 17.616v2.867l-29.086-17.615zM419.87 306.335v-2.868l16.387 10.242v2.868l-16.387-10.242zM419.87 298.961v-2.868l38.099 23.351v2.868l-38.099-23.351z" fill="#B2C3FF"/>
    <path d="m472.963 328.925-.656 3.512 3.606 6.672 6.227-10.184-.328-4.565-5.899 10.535-2.95-5.97z" fill="#C4C4C4"/>
    <ellipse cx="483.96" cy="334.115" rx="18.302" ry="30.176" transform="rotate(-1.595 483.96 334.115)" fill="#EE7298"/>
    <ellipse cx="480.79" cy="334.115" rx="18.302" ry="30.176" transform="rotate(-1.595 480.79 334.115)" fill="#F796B3"/>
    <path d="M478.223 346.254v-25.4l2.868 1.639v25.399l-2.868-1.638z" fill="#fff"/>
    <path d="M471.669 331.505v-3.277l17.206 10.652v2.867l-17.206-10.242z" fill="#fff"/>
    <ellipse cx="265.5" cy="434.5" rx="77.5" ry="31.5" fill="#F3F3F3"/>
    <path d="M226.506 343.615c.001-2.318 1.093-6.009 2.459-9.832v-4.916h4.916c0 1.638-.492 5.571.819 6.555 1.311.983 2.458 11.061 2.458 13.109s-2.458-.819-2.458-.819c-.328 5.243-2.868 4.916-4.916 4.916-2.868 0-3.278-6.555-3.278-9.013zM359.006 201.581l-6.322 5.428 4.516 6.331 4.064-4.975c1.204-1.055 3.974-3.166 5.419-3.166 1.806 0 6.773-6.331 9.031-9.95 2.258-3.618-1.354-11.759-2.258-12.211-.903-.452-9.934 10.855-10.386 12.211-.361 1.086-2.86 4.674-4.064 6.332z" fill="#FCD8E3"/>
    <path d="m249.448 377.208-9.423 37.689c-.546.956-1.31 3.441 0 5.736 1.311 2.294 6.828.955 9.423 0l16.796-43.425 10.652-33.593 10.241 22.532-4.916 47.111h8.194l15.977-47.111-13.929-52.848c-3.414.82-12.946 2.868-15.567 4.507-2.622 1.638-14.748.683-20.484 0l-6.964 59.402z" fill="#293354"/>
    <path d="m280.583 421.861 1.638-9.012c4.261 1.311 7.784-.546 8.603-1.639 1.639 3.933 10.515 7.92 15.568 9.422l-.82 4.507c-2.594.273-7.128.655-11.061 0-3.933-.656-11.197-2.458-13.928-3.278z" fill="#0E1737"/>
    <path d="m227.735 299.371-.819 33.183h9.422l7.374-29.087 12.29-21.302 2.458 13.109c0 2.95-1.638 16.796-2.458 23.351 2.049.41 8.03 1.393 15.568 2.048 7.538.656 19.254-5.189 24.17-8.193 0-3.277-2.048-22.122 0-24.99 2.049-2.867 2.049-17.615 2.868-24.17.655-5.244 21.303-14.202 26.628-17.616l35.232-32.364c-.328-2.294-5.053-6.964-7.374-9.012l-4.916 3.687-33.593 21.712-27.038 12.29c-1.366 3.824-4.506 9.914-9.422 10.242-4.916.328-9.969-2.868-11.471-5.736l-22.942 14.339-15.977 38.509z" fill="#6885EF"/>
    <path d="M271.98 235.872c0 1.967-.547 7.511-1.229 9.013 2.048 1.912 6.882 5.571 9.832 4.916 2.949-.656 4.233-6.555 4.506-9.422-.983-1.967-.41-5.19 0-6.555.328-1.967 3.687-4.916 5.326-6.145.819-2.458-3.687-13.11-4.097-14.339-.41-1.229-.819-8.193-9.422-9.832-8.603-1.638-13.519 5.736-14.749 9.013-1.229 3.277 0 12.7 5.326 17.616 4.261 3.933 4.507 4.779 4.507 5.735z" fill="#FCD8E3"/>
    <path d="m265.834 248.572 3.278-4.916 10.242 2.867 5.735-6.964 2.868 4.097-2.868 8.193-2.048-1.902c-.274.224-1.066.837-2.049 1.492-.983.656-2.508.82-3.148.82l-.539 2.048-11.471-5.735z" fill="#A4B6F5"/>
    <path d="M258.46 217.027c.984 5.244 8.057 12.563 11.471 15.568-1.639-2.95-2.048-9.969-2.048-13.11-.656-3.605 1.638-8.056 2.867-9.832 2.295-1.966 8.877-1.911 11.881-1.638 1.639 0 2.868-2.185 3.277-3.278 1.639-5.325-4.916-7.374-9.422-9.422-4.507-2.048-12.7 6.555-15.158 8.193-2.458 1.639-4.097 6.965-2.868 13.519z" fill="#7D7D7D"/>
    <path d="M241.087 449.154c-5.214-.639-6.563-10.548-5.101-15.727 1.462-5.18 2.314-9.533 3.395-14.199.369.37 1.757 1.19 4.364 1.51 2.608.319 4.424-.107 5.007-.361-.53 4.32.864 6.439 1.321 12.829.457 6.389-2.467 16.748-8.986 15.948z" fill="#0E1737"/>
    <ellipse cx="391.5" cy="503.5" rx="77.5" ry="31.5" fill="#F3F3F3"/>
    <path d="M394.962 428.527c-1.999-6.274-4.749-22.46-5.523-32.693L414.037 394v51.564l-7.56 50.169c-1.585 1.488-3.155 1.419-4.601.615-1.02-5.68-5.715-24.091-6.306-29.835-.59-5.745 3.152-17.007 5.096-21.921.059-.672-3.704-9.792-5.704-16.065z" fill="#FCD8E3"/>
    <path d="M376.518 411.765c-1.139-5.89-1.412-21.665-.82-30.857H396.5l-6.5 44.06-14.127 45.734c-1.759 1.054-3.666.501-4.984-.453-.252-5.2-.207-21.531-.028-26.717s5.357-14.537 7.924-18.564c.147-.586-1.129-7.313-2.267-13.203z" fill="#FCD8E3"/>
    <path d="M406.969 491.804c-2.083 1.235-5.106-.136-6.358-.976-1.099 5.876-2.892 18.078-1.275 19.88 2.02 2.253 9.248 1.419 14.547 1.585 4.239.132 7.826-.398 8.566-1.364.233-1.518-.35-2.86-.671-3.34-1.253.455-3.456-1.091-6.249-2.167-4.997-1.925-7.729-10.037-8.56-13.618zM377.024 467.531c-2.769 1.648-5.109.687-5.933 0-.659 5.491-1.879 16.989-1.483 19.048.494 2.574 1.483 3.604 5.438 3.604 3.955 0 9.888-3.089 9.888-4.634 0-1.235-.989-3.26-1.483-4.118-1.978.824-3.461-1.03-3.955-2.059-1.187-.824-2.143-8.237-2.472-11.841z" fill="#E1A7B9"/>
    <path d="M374.518 372c0-8.336 4.077-16.815 6.795-19.533l2.719-2.265c9.513.302 30.968-8.702 27.547 5.436-1.183 4.894-.604 11.352 0 12.862 2.421 17.63 4.421 31 10.421 47-1.812 2.537-11.363 6.755-19.5 8-19.854 3.037-30.498-5.774-34.924-9.437L367.5 414s1.909-7.857 3-13c3.164-14.919 4.018-18.58 4.018-29z" fill="#3C56C6"/>
    <path d="M364.757 355.228v-3.667h4.959v4.191c0 .524.397 2.305 1.984 5.238 1.587 2.934-.661 8.208-1.488 10.478-.793 2.095-2.975.174-3.967-1.048 0-1.572-2.479-6.286-2.975-8.382-.397-1.676.826-5.238 1.487-6.81zM466.094 333.618c-2.016.404-7.226 4.203-9.578 6.053l1.512 5.548c2.017-.505 6.856-1.513 10.083-1.513 3.226 0 4.705-1.682 5.041-2.522.84-2.522 2.218-7.868 1.008-9.079-1.512-1.513-5.545 1.009-8.066 1.513zM398.439 294.045c-2.622 3.605-3.96 3.551-4.916 3.277v5.326c0 .82 3.277 4.097 8.193 6.965 3.933 2.294 10.378-2.049 13.109-4.507-2.949-1.311-6.145-5.735-3.687-11.061 0 0 2.458-.41 3.687-2.868 1.229-2.458 3.769-6.308 5.736-13.519 2.458-9.012-5.326-15.567-11.881-16.796-6.554-1.229-10.896 3.206-12.699 9.422-1.383 4.766-.86 11.177 2.458 15.158 2.048 2.458 2.622 4.998 0 8.603z" fill="#FCD8E3"/>
    <path d="M381.853 340.062c1.592 6.369-3.171 16.415-3.171 16.415 9.967 11.326 28.994 10.892 30.806 8.174 1.812-2.718 2.091-8.694 3.45-16.955 0 0 4.757-13.803 2.266-18.786 3.624 7.248 13.677 21.292 19.566 24.916 1.613.992 25.37-8.607 25.37-8.607.362-3.262-1.51-4.531-2.718-6.796l-22.372 2.718s-4.677-7.728-8.521-23.104c-2.265-9.061-10.029-5.537-12.145-14.497-1.057 2.567-8.607 5.618-14.044 2.718-5.436-2.899-3.793-5.191-3.34-7.758 0 0-.5 2.072-6.5 2.5-3.537.252-6.372-.627-10.5 2-4.983 3.171-11.927 14.864-14.436 28.001-1.385 7.249-.647 24.464-.647 24.464s5.89 3.624 5.89-2.265c.906-2.719 2.458-15.856 2.458-15.856s2.978-9.061 7.962-17.668c0 7.248-1.186 13.137.626 20.386z" fill="#FFBDD1"/>
    <path d="M392.607 272.627c1.353-8.798 9.298-14.382 13.102-16.073 1.831-.846 7.016-1.354 13.101 3.383 6.086 4.738 4.227 12.972 2.536 16.496-2.705 4.738-3.381 18.893-3.381 25.379-2.705-4.061-2.536-13.817-2.113-18.188-2.113 5.499-.845 10.997-.845 14.381 0 3.384 4.226 15.65 2.958 16.496-1.014.677-4.931 2.256-6.762 2.961l-1.69-15.65v16.496c-1.268 1.269-8.03 1.692-9.721 1.692-1.352 0-.563-7.332 0-10.997l-2.113 9.305c-5.41.338-10.707-4.653-12.679-7.191 2.958-2.96 5.917-27.493 7.607-38.49z" fill="#3C56C6"/>
    <mask id="b" mask-type="alpha" maskUnits="userSpaceOnUse" x="127" y="370" width="77" height="52">
        <ellipse rx="18.659" ry="41.876" transform="matrix(-.38213 .9241 .894 .44806 165.568 395.526)" fill="#F4A0D7"/>
    </mask>
    <g mask="url(#b)">
        <ellipse rx="18.659" ry="41.876" transform="matrix(-.38213 .9241 .894 .44806 160.351 408.143)" fill="#BECCFF"/>
    </g>
    <mask id="c" mask-type="alpha" maskUnits="userSpaceOnUse" x="150" y="343" width="58" height="77">
        <ellipse rx="17.873" ry="43.791" transform="matrix(-.7636 .6457 .57218 .82013 178.804 381.455)" fill="#C4C4C4"/>
    </mask>
    <g mask="url(#c)">
        <ellipse rx="17.873" ry="43.791" transform="matrix(-.7636 .6457 .57218 .82013 168.818 389.899)" fill="#8FA6F9"/>
    </g>
    <mask id="d" mask-type="alpha" maskUnits="userSpaceOnUse" x="183" y="344" width="32" height="79">
        <ellipse rx="14.938" ry="39.198" transform="matrix(-.99106 .13344 .11041 .99389 198.867 383.034)" fill="#8D8D8D"/>
    </mask>
    <g mask="url(#d)">
        <ellipse rx="14.938" ry="39.198" transform="matrix(-.99106 .13344 .11041 .99389 188.035 384.492)" fill="#6785EF"/>
    </g>
    <defs>
        <linearGradient id="a" x1="569.849" y1="192.399" x2="185.105" y2="265.196" gradientUnits="userSpaceOnUse">
            <stop stop-color="#FFBDD1"/>
            <stop offset="1" stop-color="#7795FF" stop-opacity=".58"/>
        </linearGradient>
    </defs>
</svg>